<?xml version="1.0"?><svg version="1.2" baseProfile="tiny-ps" viewBox="0 0 300 300" xmlns="http://www.w3.org/2000/svg" xmlns:xlink="http://www.w3.org/1999/xlink"><title>yaro-svyr-bimi</title><g><g fill="#f1f0ec" transform="matrix(.1 0 0 -.1 0 300)"><path d="M0 1500V0h3000v3000H0V1500z"/></g><g fill="#bcbbba" transform="matrix(.1 0 0 -.1 0 300)"><path d="M650 2576c0-2 30-18 66-35l66-31 72-73 71-72 169-280 169-280 7-135c4-74 11-142 14-150s19-89 36-180l30-165 25-55c13-30 36-95 51-143 14-49 28-86 31-83 7 6 113 545 113 572v21l25 37 25 37v245l58 95c31 52 109 180 172 284l115 189 57 62 58 61 70 37c38 21 70 39 70 42 0 2-149 4-331 4h-331l41-46 41-47v-62l-25-53c-30-64-164-272-175-272-10 0-156 229-181 284-10 23-19 55-19 72v30l35 41c19 23 35 44 35 47s-148 6-330 6c-181 0-330-2-330-4zm108-978c-1-90-1-203 0-253l3-90 16-50c16-52 50-103 93-143 34-31 551-374 570-378l15-3 280 187 280 187 35 47c19 26 44 69 54 95l19 48 5 258 4 257h-222l-63-28c-34-16-67-35-73-43-17-21-35-83-55-179l-17-85-1 75-1 74-38-37-39-38-79-359c-43-198-82-360-85-360s-25 66-49 148l-43 147-33 40-32 40-30 135c-17 74-41 177-52 228l-22 92-46 32c-25 18-63 47-84 66l-38 34-16-6-16-6 5-33c3-17 8-59 11-92l6-60-24 89-24 89-14 12-13 13-92 7-93 7-2-164zM440 501c0-5 15-18 33-29l32-19 68-105 67-105V106l-22-23-21-23h184l-20 26-21 27v138l71 105 71 106 29 16c16 10 29 20 29 25v7H781l-6-9-5-10 10-6c5-3 10-16 10-27v-21l-37-59c-21-32-41-58-45-58-3 0-27 33-52 72l-45 73 14 16c8 8 15 19 15 22v7H440v-9zm640-11c0-11-32-100-71-197l-71-178-26-27-26-28h77c42 0 77 2 77 5s-6 16-14 28l-15 22 14 32 14 33 33 1c18 1 57 2 86 3l52 3 12-40 12-39-12-19c-7-10-12-21-12-24s41-5 91-5h91l-25 29-24 29-73 184c-40 100-77 189-83 196l-9 12h-98v-20zm78-248c-15-2-43-2-62 0l-35 3 31 78 31 78 32-78 31-78-28-3zm302 261c0-6 7-16 15-23l15-12V104l-16-22-15-22h184l-21 23-22 23v134h35l50-72 50-71 30-19 30-18h120l-42 38c-24 20-63 64-88 97l-46 60 17 10c10 6 31 22 46 37l28 26v98l-15 20c-8 12-31 29-51 39l-36 17-134 5-134 6v-10zm248-79 22-25v-46l-21-27-20-26h-89v161l43-6 42-6 23-25zm362 70c-46-20-87-59-113-109l-21-40V215l22-42 21-41 38-31 38-31 35-10c46-13 125-13 173 1l38 10 49 47 48 47 12 45 12 45-4 52-5 52-29 48-29 47-54 28-53 28h-72l-71-1-35-15zm167-54 32-19 16-32 17-31 5-52 5-51-11-41c-6-23-20-53-32-67l-20-27-40-10-40-11-36 18-37 18-20 28-21 28-3 78-4 78 21 41 21 41 28 15c15 8 41 15 57 16h30l32-20z"/></g><g fill="#747372" transform="matrix(.1 0 0 -.1 0 300)"><path d="M660 2576c0-2 30-18 66-36l65-32 66-66 66-67 173-289 174-289v-182l44-225 43-225 21-45c12-25 34-88 50-140l28-95 52 265c28 146 54 283 58 305l6 40 19 27 19 27v216l9 32c5 17 86 157 181 312l172 281 56 58 57 57 70 37 70 37-327 1h-328v-8c0-4 15-23 34-41s37-44 40-57l6-23-20-53-20-53-80-125c-45-69-84-126-88-127-7-3-67 87-154 231l-48 79v85l35 46 35 46H985c-179 0-325-2-325-4zm1182-851-69-33-13-33c-7-19-23-83-35-144l-23-110-1 78-1 77h-10c-5 0-22-16-37-35l-27-34-78-348c-43-191-78-357-78-368v-19l-9 9c-5 6-28 75-52 155l-42 145-27 35c-14 19-30 41-34 48s-27 97-51 200c-23 103-48 205-54 227l-11 40-42 27c-24 15-56 40-72 57l-30 31h-16c-9 0-19-2-22-5s3-60 13-127c11-67 17-123 16-125-2-2-17 49-33 114l-29 116-18 24-18 23H759l3-257 4-258 18-47 18-47 39-45 40-45 281-186 280-186 252 166c138 91 277 188 308 215l57 50 28 58 28 57 3 265 3 265-105 2-104 2-70-34zm245-1229c-20-8-52-25-71-40l-34-25-22-46-22-46 4-73 3-73 27-41 28-41 47-28 48-28h160l48 28 49 29 28 44 28 44 6 43 7 43-12 54-11 53-47 46-46 47-41 12c-23 6-63 12-90 12l-49-1-38-13zm148-48 25-11 23-36 22-36V195l-20-32-19-33-32-15c-18-8-45-15-61-15h-28l-33 20-33 20-16 38-16 37-1 70v70l17 32c9 17 29 41 43 52l27 21h38c21 0 50-5 64-12zM471 477l34-22 73-110 73-110-3-69-4-68-23-19-23-19h185l-21 23-22 23v149l70 105 69 104 33 18 33 17-85 1h-84l12-12c20-20 14-40-34-112l-46-69-49 74c-53 82-57 93-31 108l17 10-104 1H437l34-23zm609 4c0-28-128-345-155-386l-24-35h138l-16 28-15 27 15 38 16 38 87-3 87-3 15-43 14-43-18-20-17-19h173v8c0 5-9 17-19 27l-20 17-77 194-78 194h-106v-19zm110-243v-8h-130v9c0 6 14 46 32 91l32 81 33-82c18-46 33-86 33-91zm295 232 15-29V113l-21-27-20-26h172l-20 26-21 27v127h48l54-75 53-75 32-15 31-15h106l-41 35c-23 19-64 64-92 100l-51 64 36 17 35 17 14 28 15 28v68l-22 28-21 27-33 14-33 14h-252l16-30zm204-25c32-16 41-33 41-76v-29l-19-19-20-20-35-7c-20-3-43-4-51 0l-15 5v74c0 41 3 77 7 80 11 12 63 8 92-8z"/></g><g fill="#3d3d3b" transform="matrix(.1 0 0 -.1 0 300)"><path d="m735 2538 60-31 65-66 65-66 170-280 170-280 6-115 6-115 41-211 41-212 25-53c14-30 36-90 49-134l23-80 53 275c29 151 55 289 58 305 3 17 14 42 24 57l19 26v245l177 291 178 291 65 66 65 65 54 27 55 27h-624l36-47 36-47-6-34c-7-48-34-100-125-241l-80-123-64 98c-35 55-80 126-100 159l-36 60-7 40-6 41 36 47 36 47H987l-312-1 60-31zm1113-811-68-32-20-50-19-50-17-100c-9-55-19-103-23-107l-6-7 3 89 4 90-9-1c-4 0-21-16-36-34l-29-35-82-372-83-372-5 10c-3 5-26 78-52 162l-45 153-31 39-30 38-54 229-54 228-28 20c-15 11-49 39-76 63-27 23-55 42-63 42h-15v-18c0-10 7-63 15-118 8-54 15-106 14-114v-15l-9 21c-5 12-21 68-35 125l-27 104-20 18-20 17H760v-425l11-65 10-64 27-49 26-48 60-48c34-26 169-118 300-205l239-157 16 4c26 6 532 346 569 381l33 31 32 65 32 64 3 258 3 258h-83c-46 0-92 2-103 4l-20 5-67-32zm267-1226c-73-19-132-68-159-133l-16-37V229l16-37c19-48 59-88 109-114l40-21h130l40 17c50 22 91 60 117 110l20 39-4 73-3 73-30 42-30 43-46 24-46 23-54 4c-30 2-67 1-84-4zm134-59c13-10 32-33 42-52l19-35v-61c0-34-3-75-6-92l-6-30-27-33-27-32-57-5-57-4-34 34-34 34-12 45-12 44 5 58 5 58 26 39 26 39 32 10 33 10 30-5c17-2 41-12 54-22zM473 482l29-17 74-113 74-112V114l-16-22-15-22h142l-11 19-10 20v152l70 104 70 104 28 15 27 15-80 1h-79l12-12c7-7 12-20 12-30 0-19-80-147-92-148-4 0-28 34-54 76l-47 76 11 19 12 19h-92l-93-1 28-17zm611 9 6-10-70-178c-39-98-80-190-91-205l-20-28h121l-12 19-12 19 13 41 12 41h186l13-45 13-45-13-15-12-15h152l-21 32c-11 18-53 114-93 213l-71 180-54 3-53 3 6-10zm76-161c16-40 30-79 30-86v-14h-70c-38 0-70 1-70 3s12 32 26 68c15 35 30 75 35 88s12 22 14 19c3-2 18-37 35-78zm324 149 16-23V107l-17-19-16-18h154l-15 22-16 22v136h45l49-70c27-38 57-77 68-87l19-17 60-6 59-6v7c0 4-10 14-23 22-23 15-137 157-137 170 0 4 7 7 16 7h16l34 34 34 34v63l-15 29-15 30-33 17-32 17-134 4-134 4 17-23zm220-40 26-20v-86l-20-18-20-18-50-5-50-5v173h87l27-21z"/></g><g fill="#0e0d0d" transform="matrix(.1 0 0 -.1 0 300)"><path d="m743 2537 58-32 60-60 60-60 175-288 174-287v-165l40-215c22-118 48-235 57-260 8-25 32-94 52-153l37-109 21 109c11 59 37 196 58 303l37 195 19 21 19 20v251l51 84c28 46 109 179 180 295l129 210 55 55 54 54 58 32 58 33h-617l36-40 36-40v-65l-24-52c-26-56-176-293-186-293-8 0-168 254-190 303l-20 42v65l36 40 36 40H685l58-33zm27-854c0-37-3-117-6-178l-6-110 10-92 11-91 25-49 24-48 39-37c33-32 537-372 569-385l12-4 268 178c148 98 285 194 305 214 19 19 45 56 58 81l22 46 9 58 10 59v425h-215l-62-29-62-30-16-38c-9-21-26-90-37-153s-25-119-30-125l-10-10 7 100 7 100-35-33-34-33-84-379-84-379-6 7c-4 4-28 79-54 167l-47 160-23 25c-35 39-44 62-70 177-13 60-35 158-50 220l-26 112-47 30c-26 17-61 44-77 61-16 16-35 30-42 30h-13v-12c0-7 7-56 15-108 15-98 19-157 10-148-3 3-21 63-40 133s-38 131-42 135-47 11-95 14l-88 7v-68zM486 475l32-25 66-103 66-104V101l-16-15-15-16h142l-15 22-16 22v132l60 95c33 52 76 109 95 127l35 32H793l5-30 4-30-42-65c-23-36-46-65-51-65s-30 32-55 71l-46 71 5 24 4 24H455l31-25zm604 12c0-8-32-95-71-194l-71-178-21-22-20-23h108v99l13 13 13 13h172l14-34 15-35-4-28-5-28h140l-18 20-18 20-78 193-77 192-46 3-46 3v-14zm74-161c20-49 36-90 36-92s-34-4-75-4-75 2-75 5c0 2 13 37 28 77 16 40 32 82 36 92 3 10 8 17 10 15 3-2 21-44 40-93zm316 165c0-6 5-13 10-16l10-6V94l-12-12-12-12h147l-16 18-17 19v143h49l52-76 52-75 28-15 28-14h85l-40 43c-44 45-114 136-114 147 0 3 16 14 35 23l34 16 16 32 17 31-6 33-6 33-26 25-25 26-50 10-50 11h-189v-9zm229-52c11-11 24-31 27-44l6-25-12-29-11-28-25-12c-14-6-43-11-64-11h-40v169l18 3c9 2 31 2 49 0l31-4 21-19zm353 40-42-21-30-36-29-35-11-49-12-49 6-42c4-23 17-60 29-82l22-39 41-29 42-29 66-5 66-6 47 14 47 13 42 42 43 42 10 38c6 22 11 59 11 84v45l-19 40c-23 49-64 89-113 109l-37 16h-136l-43-21zm195-40c14-13 32-37 40-54l16-29V201l-19-32c-11-17-31-41-46-52l-27-20h-44l-45 1-26 18c-15 9-34 31-43 48l-16 31-5 66-4 66 11 36c15 44 47 86 75 98l21 9 43-4 43-4 26-23z"/></g></g></svg>