<?xml version="1.0"?><svg version="1.2" baseProfile="tiny-ps" viewBox="0 0 300 300" xmlns="http://www.w3.org/2000/svg" xmlns:xlink="http://www.w3.org/1999/xlink"><title>YAR.VC</title><g><g fill="#f1f0ed" transform="matrix(.1 0 0 -.1 0 300)"><path d="M0 1500V0h3000v3000H0V1500z"/></g><g fill="#ecebe7" transform="matrix(.1 0 0 -.1 0 300)"><path d="M45 2750c3-5 8-10 11-10 2 0 4 5 4 10 0 6-5 10-11 10H39l6-10zm86-139-13-8 10-7 10-6 6 15c6 17 6 18-13 6zm849-129c0-4 16-14 35-21l36-13 54-51 54-52 111-183 110-183v-112l26-136c14-75 37-165 50-201s29-84 35-107c19-67 26-59 44 54 10 61 36 177 40 182 16 16 11-23-19-160-19-85-36-163-38-174l-4-20-28 90-28 90-23 37-24 37-32 139c-17 77-34 144-38 149-3 4-30 27-58 51l-53 43-10-6c-5-3-10-16-11-28l-1-22-9 27-10 27-47 6c-26 4-56 7-67 8l-20 2-3-140c-2-77 0-164 3-193l6-52 33-43 32-42 184-122c102-68 191-123 198-123s20 7 29 15c16 17 239 165 248 165s48 33 96 81l46 46 11 46 12 46v311h-149l-44-21-44-21-13-37c-8-20-15-52-17-71-5-48-13-51-13-5v38l-24-22-24-22-13-47c-7-26-12-53-11-59l3-13h-31l6 28c17 75 25 102 34 107l10 6v169l111 182 112 183 44 46 45 47 39 18c22 9 39 21 39 26v8h-215c-118 0-215-3-215-6s11-19 25-36c30-36 31-52 4-103-33-63-101-165-109-165-5 0-33 40-64 89l-56 88-6 30-6 29 26 31c14 17 26 34 26 37s-99 6-220 6H980v-8zm237-624-5-13-1 19c-1 11 2 17 5 13 3-3 4-12 1-19zM78 2343c7-3 16-2 19 1 4 3-2 6-13 5l-19-1 13-5zm-52-21-5-9h14c8 0 15 4 15 9 0 4-4 8-9 8-6 0-12-4-15-8zm47-7v-14l9 5 8 5-5 10c-9 13-12 11-12-6zm-65-42c7-3 16-2 19 1 4 3-2 6-13 5l-19-1 13-5zm38-45 5-7 14 6c21 7 19 12-4 10l-20-1 5-8zm26-38c7-10 14-18 15-16 6 6-9 36-18 36h-9l12-20zm-22-25v-15h25l-14-9-13-9 11-18 12-19-4 15-4 15 15 18 15 17H59l6 10 6 10H61c-6 0-11-7-11-15zm-44-67 5-8 10 5c13 9 11 12-6 12H1l5-9zm234 2c8-5 20-10 25-10h10l-15 10c-8 5-19 10-25 10h-10l15-10zm-144-8-5-9h28l-5 9c-3 4-7 8-9 8s-6-4-9-8zm-71-12-6-10h10c6 0 11 5 11 10 0 6-2 10-4 10-3 0-8-4-11-10zm171-1c3-5 12-9 21-9h16l-7 7c-3 4-13 8-21 9l-15 2 6-9zm-125-10-1-16h60v19l-25-4-24-5-5 11-4 11-1-16zm89-4-12-15h10c5 0 12 7 16 15 3 8 4 15 2 15s-9-7-16-15zm140-25v-9l20 2c21 1 18 10-5 13-8 1-15-2-15-6zm-300-4c0-2 7-6 15-10l15-5v9c0 6-7 10-15 10s-15-2-15-4zm67-7c7-7 15-10 18-7s-2 9-12 12l-18 7 12-12zm66-5 6-7-11-21-11-21 20 20c21 20 21 35 1 35h-11l6-6zm282-24-20-9h23l22-1v10c0 6-1 10-2 9-2 0-12-4-23-9zM6 1984c-3-8-6-18-6-20 0-8 29-4 34 5l6 9-14 11-14 12-6-17zm45-1c1-4 0-10-1-13s-4-18-6-35l-4-30 13 17 14 18 6-7c4-3 7-10 7-15v-9l-10 6-10 6v-10c0-14 17-14 25-1l7 11-12 14c-14 16-10 18 14 9l16-6-7-11-6-10 12 7 12 8-12 15-13 14-25-6-24-6 12 14 12 15-11 7-10 6 1-8zm45-10c10-7 22-13 26-13h9l-13 13c-7 8-19 14-26 14H77l19-14zm-83-40 7-11-12-5-13-5 13-1 13-1-5-8-5-9h29l-13 15c-6 8-10 17-9 19 2 3 0 8-4 11l-7 7 6-12zm202-13-20-8 32 1h32l-5 9c-6 10-12 9-39-2zm95 6c0-2 8-10 18-17l17-14-14 18c-13 16-21 21-21 13zm-184-37 7-11-22 7-21 6v-21h19c11 0 23 5 26 10l6 10 11-6 11-7-7 11c-4 7-14 12-22 12h-15l7-11zm212-6c7-3 16-2 19 1 4 3-2 6-13 5l-19-1 13-5zM1 1854l1-19 5 13c3 7 2 16-1 19-3 4-6-2-5-13zm47 9c7-3 16-2 19 1 4 3-2 6-13 5l-19-1 13-5zm86-5c-11-18-12-48-2-48h9l-7-12-8-13 17 13 16 14 12-8 12-7-7 11c-4 7-13 12-21 12-7 0-15 7-19 15l-5 15 32 1h32l-20 9c-28 12-33 12-41-2zm112-5-7-18 12 12c7 7 10 15 7 18s-9-2-12-12zm38-18-19-14 23 6c12 3 22 9 22 14 0 12-3 11-26-6zm-268-12-6-16 14 12 15 13-4-21-4-21h44l-14 9-13 9 9 5 9 6 27-14c28-14 33-10 18 14l-9 14-16-6-16-6v7c0 4-11 9-24 10l-24 2-6-17zm2774 13c0-2 8-10 18-17l17-14-14 18c-13 16-21 21-21 13zm-2470-9c0-2 6-10 14-16l14-12 8 13 7 13-8-7-8-8-14 11c-7 6-13 9-13 6zm-124-20c3-10 9-15 12-12s0 11-7 18l-12 12 7-18zm100-1c3-8 13-17 21-20 25-10 23-3-3 17l-24 18 6-15zm-50-4-5-9h28l-5 9c-3 4-7 8-9 8s-6-4-9-8zm2254-7c0-8 29-12 39-5l13 8h-26c-14 0-26-2-26-3zm468-2c7-3 16-2 19 1 4 3-2 6-13 5l-19-1 13-5zM77 1772c-23-25-21-32 6-31h22l-20 8-19 8 19 11c11 6 17 13 14 16-3 4-13-2-22-12zm86-1 1-20 8 5 7 5-6 14c-7 21-12 19-10-4zM2 1700l1-85 6 15 6 15 25 2 25 3-24-10-23-10 11-14 12-14-15-5-15-6-5 12c-3 7-4-3-3-20l1-33h18l-7 18-6 17 13-13 13-13-18-13-17-13 2-94 2-94 11-7 10-8H0V0h3001l-1 535-2 535h-9c-5 0-9 7-9 16v15l10-6 10-6v81h-21l11 19c5 11 10 25 10 31v11l-11-7-11-6 11 21 12 21-3 62-3 61-15 4-15 5 13-10 13-9-16-13-16-13 2 9c1 5 1 16 0 24l-2 15-14-25c-8-14-14-31-15-39v-13l16 13 16 13 8-14 9-15-17-18-16-18-17 22-16 22-5-9c-3-5-3-3-2 4l3 12h-9c-9 0-14-15-11-33l1-8-10 6c-6 3-8 10-5 15s1 11-5 15l-10 6-1-18v-18l-8 20-8 20-7-22c-4-13-12-23-17-23h-10l7 13 8 12-15-12-15-12-14 9c-28 18-33 10-6-11l27-21 14 5 14 6-4-19-4-18 14-6c19-7 27 5 14 21l-12 13 21-3c12-2 25-6 28-10l7-7h-26l6-6 6-7-35-19-36-19-14 18-13 18-1-14v-13l-15 12-15 12v-20c0-12 5-24 10-27 6-3 10-15 10-26v-19h-32l11 14 12 14-11 7c-5 3-10 17-10 30s-4 27-10 30l-10 6 6-15 6-16h-22l-1-22-1-23-5 13-5 13-13-11-13-11-16 23c-14 20-21 18-17-5l1-8-22 13c-13 7-26 11-30 10-5-1-8 2-8 8 0 5 5 10 12 10 6 0 9 2 6 5s-17-1-31-8l-27-14 8-8 7-8-13 7c-7 4-10 11-7 15 2 5-7 19-22 32-14 13-23 18-18 10l8-14-14 5c-8 3-13 10-12 15s-4 10-12 10h-13l5-13 5-13-25 4-24 5-18-20-17-19 21 4 21 4v-10c0-5-5-9-12-9-23 0 0-11 31-15l32-4-11 14-11 13 11 7 10 6v-24l6 6 7 7-14 17-14 17 20-8c11-5 26-9 33-9h12v-26l-17 6-18 5 20-14c11-8 28-18 38-21l17-6v8c0 5 9 11 19 14l20 5 5-13 5-13-21 6-21 5 6-10 6-10-27 1-27 1 3-13 2-13-18 10-18 9-18-10-19-11-16 22-16 22-13-13c-6-6-12-16-12-21v-9l15 6 15 5v-19h-38l-13-21c-8-11-21-21-29-22-8-2-21-7-29-12l-15-9-4 12-4 12-15-15c-8-8-24-15-35-15h-20l11 14 12 14-13 5-13 5 18 1 17 1v-25l8 11c4 7 15 13 25 15l17 4-24 26-24 26 9 14c15 25 10 34-7 11l-16-23 11-13 11-13-7-6-6-7h24l-5-9-6-9-21 5-21 6 14 8 13 9h-24l9 30 9 30h-20c-21 0-26-16-6-23l12-5-19-1-18-1 12-15 12-15-13-1c-8-1-20-1-27 0-8 1-19-3-26-9l-13-10-19 6-19 7 20-16 20-16-18-1c-9 0-35 11-56 24-21 14-41 23-43 21s-20 0-41 4l-37 9v-9c0-5-8-9-17-9-23 0-82-41-89-62l-5-18-11 3c-6 1-13-4-16-12l-5-14 13 8 12 7-13-23c-7-13-14-30-15-36l-2-13h21l-6-7-7-6 13-15 12-15-13-4c-6-3-12-11-12-19v-15l-11 6-10 7 18 21 18 20-23-6-23-5 6 19 6 19h-37c-41 0-42-9-2-12l26-2-6-15-6-15-4 12c-2 7-8 12-14 12h-10l12-15c7-8 16-13 20-10 5 3 11 2 14-3l5-8-19-11-18-12-24 37-25 37 31 25 31 25-14-18-13-17h9c5 0 18 7 29 16l19 15-15-6-15-6 18 14 18 15-15 5-15 6-5-12c-2-7-3 5-1 26l4 38-8-5c-4-3-15 4-25 15l-17 20 6 9 6 9 24-9 23-9 11 13 11 13-26-5-27-5-14 18-13 19v-25l-11 7-11 7 7-23 7-23-18 8c-11 4-59 9-108 11l-88 4 16-25 17-26-2-89-2-90-9 6-9 6 5 14 5 14h-14c-8 0-15-4-15-10 0-5-5-10-11-10h-10l6 10 6 10-27 10-27 11-7-11-7-12-7 17c-3 9-4 21 0 26l5 9h-10c-6 0-17 15-25 33l-13 32 10 13 10 12-15-5-15-6-6 21-5 21 21 9 22 9h-17l-18 1-1 18-1 17-5-14-6-14-19 24-19 24 10-22c6-12 19-27 29-32l17-10-58 3-58 2-6-9-6-10 12 7 11 7 6-15 6-14-13-24c-7-13-14-30-16-39-1-9-11-37-22-62l-20-47h-15c-18 0-27-23-16-41l9-14-21-22-21-23h112l-2 20-1 20h-11l-10 1 19 14 20 15h-25l6 10 6 10h109v-21l-11 7-12 7 5-14c3-8 10-13 16-12l11 3-9-26c-13-34-13-34 13-34l22-1-19-14-20-15h35l-6-10-6-9-17 6-17 7 13-16 13-16-17-6c-22-9-24-8-17 9l5 16-15 17-16 17 9 15 10 15 1-15c1-8 1-18 0-22 0-5 4-8 9-8 6 0 10 3 10 8 0 14-19 37-31 37-7 0-14 6-17 13l-4 13 13-3 13-3 1 18c0 9-3 17-7 17h-37l-12-22-12-23 15 12 15 13v-30l-16-1h-16l20-8c11-5 24-6 29-3l9 5-7-11-7-11-13 5-14 5-8-12-7-12 13 8 13 8-7-11-7-11-25 9c-34 13-81 13-107-2l-22-11 11 14 11 14-3 23-4 22h32l-13 17-14 17 11-7 11-6v27l-18-11-17-11 5-12 4-12-26-28-27-29 4 20c1 11 8 24 13 28l10 8-22-6-22-6-7 25c-8 33-2 58 15 64l14 5-8-14-8-14 23 20 23 20-6-17-6-17 12-5 12-4-29-1-29-1 6-7 7-6-10-12-10-12h15c8 0 15 5 15 11v11l9-13 8-14 6 17 7 16 42 20 43 20-39-7-38-7-9 14-8 14 17 6 16 6-26 5-27 5 4-7c4-7-17-20-31-20-3 0 3 14 13 30l17 30h38l-6-15-5-15 9-1c6-1 14-2 19-3 5 0 13-5 18-10l8-9-11 6-12 7-12-15c-15-18-12-18 29-4l33 11-11 11c-6 6-11 20-11 30v19l-16-6c-8-3-26-3-39 0l-24 6 16 24c8 13 22 24 29 24 8 0 13 4 11 9-1 5 7 17 18 25l20 15-17 1c-10 0-20-1-21-2-2-2-12 4-22 12l-19 15 9-15 9-15-15 12-15 12-14-9-15-9 3-31 4-30h-10c-5 0-14-11-20-25l-11-25-16 6-16 7 5 12 5 13-14 6c-8 3-19 15-26 28l-12 23 15-13 16-13 6 16 5 15 18-1 18-1-16-5-17-4-5-20-6-21 18 16c10 9 23 16 29 16h11l-5 15-6 15-25 6-25 7 14 9 13 10-15-5-15-4 1-17 2-17-12 9c-6 4-21 7-33 6l-23-1v18l-12-8c-7-4-24-9-38-11-14-1-31-5-39-8l-14-4 6-7 7-6-12-14-11-14 19-15 19-16-17 6-17 5-7-11-7-11 11 7 12 7v-23l-12 5c-7 2-14 9-14 15-3 25-5 27-15 12l-10-15 4 20 3 20 10-2 11-2v29l-12-10-13-10-5 22-6 22 11 13c6 7 7 13 3 13s-1 8 6 18l13 17-13-12-13-11-14 5-14 5v-23l9 6 10 5 5-9 6-10-10-6-10-6 6-26 7-26-18 6-17 7 6-16c3-8 6-18 6-20 0-3 4-3 8 0l9 5v-28l-9 5-8 5v-22l-10 6c-6 4-9 14-8 22l3 16-13 3-12 3 10-6 10-5-16-16-16-16 18-8 19-8-22 4-23 4v-8c0-4 7-11 16-14l17-6 13 11 14 11v-10c0-5-7-13-16-16l-15-6-27 15c-15 8-23 14-18 15 5 0-1 11-13 24l-23 25 7 10 6 11h-6c-4 0-16-10-27-22-11-13-16-17-12-9l7 14-17-6-17-7 6 10 6 10h-9c-5 0-9 6-9 13 0 6-4 20-8 29l-7 18 25 9 24 9 7 18 7 18-21-19-21-19 10 28c6 15 11 33 10 39 0 7-6-4-13-22l-12-35-27-7-27-7 6 9 5 9h-10c-5 0-12-4-16-9l-5-10 17-10c10-6 14-11 9-11h-8l12-15 12-15 9 6 9 5v-21l-17-1h-18l20-10 20-9-20 3-20 2v30l-29 12c-15 7-32 10-37 7l-9-5 6-10 5-9 11 6 11 7-6-11-7-10-18 3c-9 2-19 4-21 4-2 1 4 11 15 23l19 21-15-5-16-6v19c0 24 1 24 42-7l34-27-6 17-6 16h-30l4 13 5 12 24 3c13 1 35 5 47 8l24 5-6 14-5 14 15 16c9 8 23 15 32 15h17l-15 11-15 11 30-6 30-6-20 12c-11 6-23 15-26 21l-6 9-7-27c-4-15-10-25-13-22s-12 0-20-8c-19-19-32-19-39 0-4 8-10 15-16 15h-9l7-12 7-11-11 7-12 7v-10c0-10 12-15 31-13 3 0 10-8 17-19l12-19h-51l5 8c3 5-4 16-15 25-21 19-33 22-24 7l6-10h-10c-5 0-17-7-26-16l-17-17 4 19 3 19-23 3-23 4-6 14-5 14h-33l15-11 15-11-15 5-15 4 3 18 3 17-13-8-13-7 7 8 7 8-11 20-10 20 18-8c11-4 25-8 32-8h13l-11-11c-16-16-12-24 15-22 14 0 25 4 25 8 0 3 16 2 36-3 42-12 56-9 60 14l2 17h-9c-5 0-9-7-9-15v-15h-35l14 9 13 9-12 7-11 7 18 13 18 13 13-10 13-11-5-13-5-13 14 5 14 6-17 24c-9 13-22 24-28 24s-17 7-24 15l-12 15h23l-6 10-6 10h36l-15 10c-8 5-19 10-23 10h-8l6-10 6-10-16-6-16-6 3-22 3-21-30 2-30 2 19-8 20-8-10-6-10-6-14 10-15 9 18 14c22 17 22 27 0 19l-16-6 8 13 8 13-18-11-19-10-12 13-13 12-25-4c-14-3-26-10-26-15v-9l9 6 10 5 6-10 6-10h-30l-11 19c-14 27-13 30 10 26 12-2 27-2 35 1l14 6-6 13-5 14 29 6c15 4 34 9 41 11l13 4-6 10c-3 5-12 10-18 10h-12l15-11 15-11-22 6c-13 3-32 9-43 12l-20 6v-23l9 6 10 5 5-9 6-9-13-5c-6-2-32-1-57 3s-39 8-32 9c6 0 12 6 12 12v10l-12-7c-6-4-26-7-45-6l-33 1v-24l-10 15-9 15 21 8 21 8-16 12-16 12 17 15 16 14-6-16-7-16 24-4 24-5 12 11 12 11-7-12-7-13 26-12 26-11-13-9-13-8h45v39l-15-5c-8-3-19-3-25 1l-11 7 12 14 11 14h-16c-9 0-16 4-16 9v9l-25-2-24-3 4 7c3 5-2 11-11 14l-15 6 6-10 6-10h-29l-6-17-7-17-7 10c-4 6-14 14-22 18l-15 6 23-4 23-4 16 24 16 24 11-8 11-9 33 9 33 9-6 10-6 9-16-9-16-8-18 4-19 5-17-13-17-14 7 17 6 18-7-1c-4-1-13-1-20 0l-13 1 7 12 7 11-18-7-18-6 13 15c7 8 10 16 6 16-3 1-10 2-15 3-5 0-13 5-17 9l-8 8 36-5c44-5 53 2 32 25l-15 17 10 7 11 6v-9c0-5 6-9 13-9 6 0 26-3 42-7 17-3 23-3 15 0s-32 15-52 25c-21 10-39 17-39 14-1-3-2-8-3-12-1-5-6-16-12-27l-11-19-8 14-9 13 12 4c7 2 12 8 12 13 0 6-3 8-8 5-4-2-16 2-26 10l-19 13 11 14 12 14H31l5-9 5-8H26c-8 0-17 6-19 13-3 6-5-26-5-73zm31 23 7-6-13-15-12-15 23 12c26 14 30 4 5-15-27-20-32-17-30 16 2 30 8 36 20 23zm77-38c0-8-4-15-10-15h-9l5 15c4 8 8 15 10 15s4-7 4-15zm-17-84c4-1 12-1 17-1h11l-13-14-13-14-8 14c-4 8-15 14-22 14-8 0-15 5-15 10v11l18-10c9-5 20-9 25-10zm-16-26v-15H36l20 15c10 8 19 15 20 15 0 0 1-7 1-15zm53 1c0-3-4-8-10-11l-10-6v10c0 6 5 11 10 11 6 0 10-2 10-4zm-74-52c-9-8-16-21-17-27v-12l-8 20c-11 25-5 35 20 35h20l-15-16zm144-4c0-5-2-10-4-10-3 0-8 5-11 10l-6 10h10c6 0 11-4 11-10zm-141-63-1-12-5 13-5 12-10-6-11-7 7 12 7 11 10-5c5-4 9-12 8-18zm60-11 12-14-18 3c-10 2-19 4-21 4-4 1 8 21 12 21 2 0 9-6 15-14zm86-6 6-10 12 6 12 7-10-11-10-11-23 5-22 6 6 9c7 12 21 11 29-1zm-135-35v-10l-10 15c-5 8-10 20-10 25v10l10-15c5-8 10-19 10-25zm216 22 7-7h-54l5 9c7 10 31 9 42-2zm-148-25c-10-2-18-8-18-14s-2-9-5-6-3 12 1 21l6 16 16-7 17-6-17-4zm52-6-10-10-10 10-10 10h40l-10-10zm-100-6c0-5-5-10-11-10H69l6 10c3 6 8 10 11 10 2 0 4-4 4-10zm114-25c-11-8-23-14-29-14l-10 1 13 5 12 5-6 10-7 11 10-6 11-7 7 18 7 17 5-13 5-13-18-14zm-63 2c-6-8-9-17-6-21 3-3 0-2-6 3l-11 9 6 11c4 6 12 11 18 11h10l-11-13zm184 2 7-10 17 6 16 6-12-12-11-11 5-14 5-14h-11c-6 0-11 4-11 9s-9 11-20 14l-20 5 4-24 5-24-9-5c-5-3-12 0-16 6l-7 11 13 8 12 8-18 11-19 10 18 1h18l5 15c7 18 20 19 29 4zm120-19-6-10h13l13-1-27-15c-16-8-28-18-28-22s-9-8-20-8h-19l16 18c9 10 22 18 28 18 7 0 15 7 19 15 3 8 8 15 11 15 4 0 3-4 0-10zm-198-25c0-16-10-18-45-9l-23 7 23 12c27 14 45 10 45-10zm-200-21c-3-3-11-3-16 1l-11 6 6 11 6 10 11-11c6-6 8-13 4-17zm388-4 6-10h-10c-6 0-11 5-11 10 0 6 2 10 4 10 3 0 8-4 11-10zm-165-22c11-12 20-26 20-30v-9l-9 6-10 5-6-10-6-10h22l-6-10-6-10h12c7 0 10-3 6-6-3-3-11-2-19 3l-13 8-1 22-1 23 8-6 9-5v8c0 11-21 33-31 33-5 0-6-8-4-18l3-19h-25l2 21c3 27 2 26 20 26 8 0 23-10 35-22zm-102-13c-2-1-16-5-33-9l-30-7 20 14 19 15 14-5c7-3 12-7 10-8zm2817 6 5-10-19 2-20 1 5 8c7 11 22 10 29-1zm-41-52-17-19-21 1-21 2 23 4 22 4-6 10-5 9 13-2 13-3-3 13-2 13 10-6 11-7-17-19zm-2731 14c-7-2-19-2-25 0l-13 5h50l-12-5zm112-3 6-9 17 5 17 6-14-10-14-10 7-11c4-6 12-11 17-11h10l-5 9-6 9 14 5 14 5-11-28-11-29-11 16-12 16-16-6-15-6 3 17c1 9-2 23-8 30l-9 12h10c6 0 13-4 17-10zm2127-8c-7-2-12-11-12-19 0-9-3-14-6-10-3 3-3 15 1 26l6 21 12-7 11-7-12-4zm-1905-7v-14l-9 5-8 5 5 10c9 13 12 11 12-6zm-62-15c-4-6-10-8-15-5s-11 1-15-5c-8-13-25-13-25 1v10l10-6 10-6v21h41l-6-10zm2305-6v-13l-15 5c-8 4-15 9-15 13s7 8 15 8h15v-13zm87 10c-3-3-12-4-19-1l-13 5 19 1c11 1 17-2 13-5zM97 1185c0-8-4-15-9-15-10 0-11 14-1 23 9 10 10 9 10-8zm77 3-5-8 23-9 23-10h-17c-9-1-23 6-31 14l-15 14-7-7-8-7 6 11c3 6 13 11 21 11h15l-5-9zm64-5 4-13h-23l6 9 5 9-17 6-18 5 19-2c11-1 21-8 24-14zm2593 3-12-14 18-5 18-5-24-1-24-1 16-18c10-10 17-26 17-35v-17h15c8 0 15-4 15-10 0-5-4-10-9-10-13 0-36 31-36 49v16l-12 1c-24 3-25 4-13 19l12 14-8 12-7 12 11-7 12-7v10c0 6 5 11 11 11h11l-11-14zm-2536-6 6-10-15 6c-18 7-21 14-7 14 6 0 13-4 16-10zm2649 1 5-8-24 5c-14 2-25 6-25 8 0 8 39 4 44-5zm-2598-27 29-16-25 7c-14 3-30 7-37 7l-12 1 5 9c7 11 7 11 40-8zm2290 0-6-17 13 11 14 12 6-7c4-3 7-10 7-15v-8l-25 4c-13 3-30 8-37 12l-12 7 20 8c27 11 27 11 20-7zm92-39c0-5 9-12 19-16l18-8h-15c-8 0-22 4-30 9l-15 10h26l-6 10c-4 6-10 8-14 6l-7-5-1 21-2 21 13-19c8-10 14-23 14-29zm-148 26c0-5-7-12-16-15l-15-6 6 9 5 9-12 5-13 5 23 1 22 1v-9zm284-7 6-15-10 6c-6 3-10 10-10 16 0 14 7 11 14-7zm31-2c-3-3-11 0-18 7l-12 12 18-7c10-3 15-9 12-12zm-2597-8 9 5v-27l-29 10-28 10 6 9 6 10 13-11c8-7 18-9 23-6zm2221-3 21-18-15-13-15-13 5 15 6 15-16 13-15 12v-23l-11 7-11 7 13 8c8 5 14 9 15 9s11-8 23-19zm-292-6c0-17-13-20-21-6l-6 9 12 5c7 3 13 6 14 6 0 1 1-6 1-14zm233-15c0-9-57-33-83-34-10-1-21-5-25-11-8-12-38-13-46-2-3 4-3 5 0 2 4-2 16 2 28 10 11 8 28 15 38 15h18v39l23 3c22 4 47-8 47-22zm-2070 10c0-5-2-10-4-10-3 0-8 5-11 10l-6 10h10c6 0 11-4 11-10zm470 0c10-5 28-24 40-40l22-31-14-17-13-17 16 13 17 13 20-35 21-35-15 6c-8 3-14 10-14 17l-1 11-10-18-11-18 5-14 6-13-25 3-25 2 5-13 5-14h-9c-6 0-10 7-10 16v15l-12-7-13-7 19 21c21 24 36 28 36 11v-10l-12 7-11 7 7-11c11-18 23-14 29 8l5 20h-58v17l33-5 32-4-20 15-20 15-9-5-9-6 7 11 7 12h-13l-13 1 19 14 18 14-7 10c-3 6-14 11-23 11h-17l15-10 15-10h-12c-14 0-27 18-28 42-2 21 0 21 25 8zm1342-7c10-9 18-22 18-29s9-18 19-24l20-10 7 11 7 12 11-15c6-8 24-17 39-20l29-6 8 22 9 21v-13l1-13 10 6c6 3 10 4 10 0 0-11-65-45-85-44l-20 1 25 9 25 9-54-6-54-5 13 15 12 16h-10c-6 0-14-4-17-10-3-5-15-10-25-10h-19l6-17 6-16-14 8-14 9 15-19 15-19-14 8-14 9 5-14c3-8 10-15 16-15 7-1 18-2 26-3l14-1-5-20-5-20 11-14 12-14-20 5c-11 3-20 8-19 12 2 18-3 31-13 31h-10l6-10 6-10-16 7-17 6 12 7 13 8-8 12-8 13-19-24-19-24 9 20c5 11 8 31 5 45-2 13-1 31 2 39l6 15 9-14 10-15v36l-19-6-19-6-5 21-5 21 13 6c8 2 17 13 20 24 8 23 23 24 47 2zm453-11c-2-2-9-1-14 3l-11 6 6 11 7 10 8-13c4-7 6-15 4-17zm265 23c0-1-7-5-15-8l-14-6-5 7-5 8 20 1c10 1 19 0 19-2zm-2650-25c0-5-5-10-11-10h-10l6 10c3 6 8 10 11 10 2 0 4-4 4-10zm1758-13c7-5 10-12 7-15-2-3 3-11 12-17l17-13-42-7-43-7 12-15 12-14-14 3c-7 2-18 12-24 22l-10 19-17 3-18 2v-9c0-5 10-10 23-10l22-2-23-4-24-5 5-12 5-13h-27l4 35c5 39 20 60 50 72l20 9 20-6c11-3 26-10 33-16zm687 5c-3-3-11 0-18 7l-12 12 18-7c10-3 15-9 12-12zm100 8 6-10-15 6c-18 7-21 14-7 14 6 0 13-4 16-10zm-1138-27 18-26-13-5c-6-2-12-10-12-18v-15l-19 11-20 10-5-9-6-9 12-5 13-5-22-1-23-1v100h60l17-27zm826 13 6-15-14 6-15 5 6 9c7 12 11 11 17-5zm-2029-11c-4-8-11-15-16-15h-10l12 15c7 8 14 15 16 15s1-7-2-15zm2006-18 15-5-22-1-23-1-1 18-1 17-5-18-5-17-9 6-10 6 12 15 13 15 10-14c6-8 18-17 26-21zm145-9 8 7-7-13-7-12-35 26c-19 15-34 29-34 31 0 3 15-6 34-20l34-26 7 7zm55 31v-11l15 5 14 6 5-7 5-8-24-2-23-2-6 15-5 15h9c6 0 10-5 10-11zm-2286-14c-4-8-11-15-16-15h-10l12 15c7 8 14 15 16 15s1-7-2-15zm36-15c-8-5-19-10-25-10h-10l15 10c8 5 20 10 25 10h10l-15-10zm166-13 17 6-5-13c-6-20-31-19-53 3l-20 20 22-12 22-11 17 7zm701-1-6-14 13-5c7-3 16-15 19-26l5-21h-34c-39 0-38-1-22 37 6 15 11 31 10 36-1 4 3 7 9 7h11l-5-14zm1233-14c-21-7-23-6-26 10l-2 17 19-12 19-12-10-3zm157 22c-3-3-12-4-19-1l-13 5 19 1c11 1 17-2 13-5zm-1917-14c0-5-2-10-4-10-3 0-8 5-11 10l-6 10h10c6 0 11-4 11-10zm85-11c-4-5-13-9-22-9h-15l23-21 24-20-26 16-26 15-19-5c-10-3-4 2 14 11 17 10 32 22 32 26v9l10-6 10-6-5-10zm1996 4 14-18-17 14c-17 13-22 21-14 21 2 0 10-8 17-17zm-821-3c0-5-5-10-11-10h-10l6 10c3 6 8 10 11 10 2 0 4-4 4-10zm17-9-1-20-11 5c-5 3-2-1 9-10l19-15-8-18c-5-10-8-25-7-33l1-15-5 13c-3 6-13 12-22 12h-17l15-10 15-10h-30l15-10 15-10-25-1c-14-1-32-2-40-3s-22 2-31 6l-17 8-11 32-11 33 14-17 13-18 6 7 7 6v-22l19 2 19 1-6 15-5 14 17-6 17-7 15 15 15 15h-10c-16 0-13 18 7 39 22 25 21 24 19 2zm-1397 5c0-2-8-10-17-17l-18-14 14 18c13 16 21 21 21 13zm1600-10 30 2v-18l28 4 27 5-19-14-19-14-27 14-28 14-20-4-21-4 6 17 7 16 3-10 3-10 30 2zm198 0-13-13-14 5-15 5 20 8c29 12 36 10 22-5zm160-12 12 7-1-8c0-4-4-17-9-28l-9-20v13c-1 7-8 20-16 28-8 9-15 20-15 27v11l13-19 14-18 11 7zm-1922-6c10-13 15-20 10-16l-9 8-12-10-11-9v24c0 14 1 25 1 25 1 0 10-10 21-22zm2055 5 14-18-17 14c-17 13-22 21-14 21 2 0 10-8 17-17zm54 7 6-10h-10c-5 0-13 5-16 10l-6 10h10c5 0 13-4 16-10zm-2211-7c4-5 13-8 19-8 5 0 12-7 14-15l5-15-10 14-10 13-3-9-4-10-19 18-19 19h10c5 0 13-3 17-7zm1371-14c-4-5-12-9-18-8l-12 1 13 5 12 5-6 10-7 11 12-7 11-7-5-10zm-1176-3 12-14-18 3c-10 2-19 4-21 4-4 1 8 21 12 21 2 0 9-6 15-14zm1221 5c0-5-10-16-23-24l-24-15-14 9-14 9h36l5 15c7 16 34 21 34 6zm283-21 17-20h-43l6 7 7 6-11 14-11 13h9c5 0 16-9 26-20zm187 10c0-4-6-7-12-8-7 0-25-3-41-5l-27-4 11 13 10 13 30-1c16-1 29-4 29-8zm65 0 6-10-15 6c-18 7-21 14-7 14 6 0 13-4 16-10zm148-7c-7-17-19-17-26 0l-5 13h36l-5-13zm-2299-5-5-7-14 6c-21 7-19 12 4 10l20-1-5-8zm394-12 17 6-14-10-15-11-18 10c-10 5-18 14-18 20v10l15-15 16-15 17 5zm1559 18c-3-3-12-4-19-1l-13 5 19 1c11 1 17-2 13-5zm250-19-6-15-23 1-23 1 25 8c14 4 21 8 17 9l-8 1 6 11c10 15 19 3 12-16zm-1902 5-6-10 13-1h13l-20-8c-23-10-35-5-35 12v12l9-13 8-14 6 16c4 9 9 16 12 16 4 0 3-4 0-10zm295-26v-34l-25 16c-27 18-33 29-11 21l14-6 6 15 6 15-9-6c-5-3-12-2-15 3l-5 8 20 1 19 2v-35zm480 23v-9l-16 6-16 6 5-21 6-22-11 11-11 11 6 14 5 14h16c9 0 16-5 16-10zm175 3 6-10-9 2c-6 2-10-1-11-7 0-5 6-10 13-10h15l36-42c20-24 39-42 43-42 4 1 12 0 17-1 6-1 24-1 41 0l32 1 6-9 6-9-20-18-20-18v9c0 6 5 15 12 22l12 12h-45l7-11 6-11-21 11-21 12v-10c0-5 6-12 13-15l12-6-20 3-20 3 3 12 2 12h-30v23l-6-6-7-7 11-13c16-19 4-29-19-16l-19 10v-11c0-5-4-10-10-10h-9l5 14 5 14-10 7c-6 3-11 10-11 16 0 5 9 0 21-12 24-24 26-23 31 11l3 25-30 1c-16 1-36 2-42 3l-13 1v80h14c8 0 18-5 21-10zm-805-12c0-4-7-8-15-8s-15 4-15 8c0 5 7 9 15 9s15-4 15-9zm1650 2c0-5-5-10-11-10h-10l6 10c3 6 8 10 11 10 2 0 4-4 4-10zm170-4c0-2-7-7-16-10l-15-6 6 10c6 10 25 14 25 6zM861 903l14-18-17 14c-10 7-18 15-18 17 0 8 8 3 21-13zm45-5-16-9 6-11 7-11-11 7-12 7 12 19 12 19 9-6 10-6-17-9zm1534 12v-9l-15 5c-8 4-15 8-15 10s7 4 15 4 15-4 15-10zm-957-27-6-16 11 7 11 6 5-9 6-10-10-6c-6-4-8-10-6-14l5-8h-14c-8 0-13 2-11 5 2 2-5 13-16 24l-21 21 18 13c10 7 22 11 26 8l8-5-6-16zm42 9c-3-3-11 0-18 7l-12 12 18-7c10-3 15-9 12-12zm352-37c27-24 29-35 8-35h-15v13c0 7-5 18-11 24l-11 11-14-5-15-5 12-14 11-13-31 15c-17 9-31 18-31 20 0 3 6 2 13-1 6-4 3 1-7 9l-20 16 7 6 7 7 13-12 14-11 13 16 13 15 10-18c6-10 21-27 34-38zm270 38c0-7-2-11-5-8-3 2-14 0-26-6l-21-10 17 14c10 8 16 16 13 19-3 2 1 5 8 5h14v-14zm167 8c-8-8-34-10-38-2l-5 7h24c14 0 22-2 19-5zM960 875c0-8-5-15-11-15h-10l5 9 6 9-12 5-13 5 18 1 17 1v-15zm-330-1c0-2-4-5-9-9l-10-5-5 8-5 9h14c8 0 15-2 15-3zm1660-9 12-15h-11c-6 0-11 5-11 11v10l-10-6-10-6v10c0 16 16 13 30-4zm-1845-5 6-10-15 6c-18 7-21 14-7 14 6 0 13-4 16-10zm1795 6c0-2-7-7-16-10l-15-6 6 10c6 10 25 14 25 6zM925 850c-3-5-14-10-23-9h-17l20 9c27 11 27 11 20 0zm1185 6c0-2-9-6-20-9l-20-5 6 9c5 9 34 13 34 5zm-440-16c0-5-4-10-10-10-5 0-10 5-10 10 0 6 5 10 10 10 6 0 10-4 10-10zm-720-10c0-5-5-10-11-10h-10l6 10c3 6 8 10 11 10 2 0 4-4 4-10zm990-22v-10l-15 12c-8 7-15 17-15 22v10l15-12c8-7 15-17 15-22zm237 26c-3-3-12-4-19-1l-13 5 19 1c11 1 17-2 13-5zM994 818l-5-7-14 6c-21 7-19 12 4 10l20-1-5-8zm53 3 13 11v-11c0-6-3-11-7-12-5 0-16-2-25-4l-18-3v32l12-12 12-12 13 11zm63 5c0-2-8-10-17-17l-18-14 14 18c13 16 21 21 21 13zm344-8-6-9-21 7-22 6 20-15 20-16-19 3c-10 1-22 10-27 19l-10 16 35-1 35-1-5-9zm151 3c-11-5-26-6-32-4l-13 5v-23l-10 6c-21 13-9 21 33 23l42 1-20-8zm397-16 5-25-13 11-14 11 6 9 5 9-15-6-16-6v22h38l4-25zm71 18c-7-2-21-2-30 0l-18 5h60l-12-5zM895 810l6-10h-10c-5 0-13 5-16 10l-6 10h10c5 0 13-4 16-10zm626-6 14 7-17-13-16-14 16-12c9-6 13-11 7-11-5 1-16 1-23 0l-13-1 6-9 5-10-9-5-10-6-5 9-6 9 14 11 14 12-4 27-4 27 9-14 9-14 13 7zm101-6-11-11 17-13 17-13-13-13-13-13 7 18 6 17-16-6-16-6v14c0 13 19 38 29 38 3 0 0-5-7-12zm269-5-22-18h38c21 0 40 3 43 7l5 6 19-13 19-14h-72c-39 0-76-3-83-7s1 7 17 24c17 17 36 31 44 31l13 1-21-17zm179 12c0-1-10-10-22-21l-23-19 13 16c6 9 10 18 7 21-3 2 2 5 10 5s15-1 15-2zm351-13c-7-2-18 1-23 6l-11 11 24-6 23-7-13-4zm-951-18v-14h-95l14 9 14 9 30-4 29-3-6 15-6 15 10-6c6-3 10-13 10-21zm-485-7 10-9-19 6-19 6-13-11c-19-16-18-4 2 16l16 16 7-8c3-4 11-12 16-16zm283 11-3-13 13 3c6 1 12-2 12-8 0-5-5-10-11-10h-11l6-32 6-33-11 18-11 19 5 19 5 19-51 2-52 1 43 4 42 4v10c0 5 5 9 10 9 6 0 9-6 8-12zm-192-17 3-11-5 9-5 10-13-5c-7-3-23 0-37 5l-24 10 39-3 40-3 2-12zm514 3c0-2-12-4-26-4h-25l5 9 6 9 20-5c11-3 20-7 20-9zm230 3v-9l-55 4-55 3-4-10-4-10-16 16-17 16 76-1 75-1v-8zm500-1c0-2-8-10-17-17l-18-14 14 18c13 16 21 21 21 13zM917 728l-5-13v50l5-12c2-7 2-19 0-25zm233 12c0-5-2-10-4-10-3 0-8 5-11 10l-6 10h10c6 0 11-4 11-10zm240-31c-6-10-16-19-23-19h-12l13 9c8 4 13 11 13 15-1 3-1 11-1 17v10l10-6 10-6-10-20zm468 1 1-30h-9c-4 0-11 7-14 16l-6 17 11 13c15 19 16 18 17-16zm250 18c-2-6-10-13-16-14l-12-2 10 5 10 5-6 9-5 9h23l-4-12zm-1075-5 7-6-27-19c-35-22-43-23-43 0v17l8-12 8-12 14 9 15 10h-30l15 10c18 12 24 12 33 3zm922-3 6-10h-10c-6 0-11 5-11 10 0 6 2 10 4 10 3 0 8-4 11-10zm-775-17v-14l-20 11c-11 6-20 12-20 13 0 2 9 3 20 3h20v-13zm273 4 5-14h-26l5 14c3 7 6 13 8 13s5-6 8-13zm41-3 6-17-15 13c-17 14-19 20-6 20 5 0 12-7 15-16zm491 7 5-10-8-5-9-5v14c0 17 3 19 12 6zm-300-23 8 7-7-13-7-12-9 5-8 5-5-12c-2-7-4 0-4 16v30l12-17 12-17 8 8zm-185-13c0-2-4-6-9-9l-9-6-5 15-6 14 15-6c7-3 14-7 14-8zm301-2 14-18-17 14c-17 13-22 21-14 21 2 0 10-8 17-17zm-771-9c0-2-7-4-15-4s-15 4-15 10v9l15-5c8-4 15-8 15-10zm166 7-6-9 12-5 13-5-17-1c-18-1-24 10-11 22 9 10 15 8 9-2zm144-35c0-3-4-8-10-11l-10-6v10c0 6 5 11 10 11 6 0 10-2 10-4zm80-6c0-5-2-10-4-10-3 0-8 5-11 10l-6 10h10c6 0 11-4 11-10zm140 0c0-5-5-10-11-10h-10l6 10c3 6 8 10 11 10 2 0 4-4 4-10zm536-2 7-13-8 7-8 8-16-13-16-12 14 18c16 20 18 21 27 5zm-382-39-5-9-10 6-9 5 6 10 5 9 10-6 9-5-6-10zm394-4c-3-3-9 2-12 12l-7 18 12-12c7-7 10-15 7-18zm-618 1c0-2-7-7-16-10l-15-6 6 10c6 10 25 14 25 6zm470-6c0-5-2-10-4-10-3 0-8 5-11 10l-6 10h10c6 0 11-4 11-10zm-856-96 6-15-10 6c-6 3-10 10-10 16 0 14 7 11 14-7zm870-9c-25-19-38-19-22 0 7 8 19 14 27 15h15l-20-15zm-311-12c-7-2-19-2-25 0l-13 5h50l-12-5zm44 1c-3-3-12-4-19-1l-13 5 19 1c11 1 17-2 13-5zm180 0c-3-3-12-4-19-1l-13 5 19 1c11 1 17-2 13-5zm241-1c-10-2-28-2-40 0l-23 4h40l40 1-17-5zm-237-36-11-11-12 13-13 12 19-7 19-7-8 13-8 13 12-8 13-7-11-11zm519 673-15-10h12c6 0 15 5 18 10 8 12 4 12-15 0zm-1525-60-6-10h10c6 0 11 5 11 10 0 6-2 10-4 10-3 0-8-4-11-10zm1275 50c0-4 6-10 14-13l14-6-5-20-5-21h11c6 0 11 6 11 13v12l9-14 9-13 6 11 7 11-15 6c-9 3-14 9-12 13 2 3-7 11-20 18l-24 11v-8zm105-51c-4-6-5-12-2-15 2-3 7 2 10 11 7 17 1 20-8 4zm-299 23-6-10 15-12c21-17 27-9 10 13l-13 18-6-9zm-346 12c0-6 6-17 14-23l14-12 6 17c9 24 7 31-4 14l-10-15-10 15-10 15v-11zm7-187-5-14h25v14c0 7-4 13-8 13s-9-6-12-13zm188-17-6-10 15 6c18 7 21 14 7 14-6 0-13-4-16-10zM115 1771c-2-5 1-14 9-20l13-11 6 7c11 10 8 20-8 26l-14 6-6-8zm2585-1-15-10h12c6 0 15 5 18 10 8 12 4 12-15 0zm-2492-21c-10-5-18-15-18-21v-11l18 15c9 9 24 18 32 21l15 5-15 1c-8 0-23-4-32-10zm148-12c3-10 9-15 12-12s0 11-7 18l-12 12 7-18zm2295-10c2-1 13-9 24-17l20-15-14 18c-7 9-18 17-24 17s-8-1-6-3zm-2425-22c4-8 7-15 9-15s5 7 9 15l5 15h-28l5-15zm185-11 1-19 5 13c3 7 2 16-1 19-3 4-6-2-5-13zm-106-5c-4-6-5-12-2-15 2-3 7 2 10 11 7 17 1 20-8 4zm2630 1c3-5 8-10 11-10 2 0 4 5 4 10 0 6-5 10-11 10h-10l6-10zm-2780-9-5-10 8-5 9-5v14c0 17-3 19-12 6zm43-13c5-5 16-8 23-6l13 4-23 7-24 6 11-11zm122 8c0-2 7-6 15-10l15-5v9c0 6-7 10-15 10s-15-2-15-4zm2460-10c0-2 7-7 16-10l15-6-6 10c-6 10-25 14-25 6zm65-17c-11-16-1-19 13-3l13 14h-10c-5 0-13-5-16-11zm-2719-15-6-15 9 6 10 5 5-9 6-9 30 2c16 1 33 6 37 11l8 8-12-7-12-6-6 10-7 11-14-12-14-11-6 16c-8 20-20 21-28 0zm116 8-13-4 15-23 16-24-20-6c-24-8-25-18-5-35l14-12 13 5 13 5-17 1c-10 1-18 4-18 7 0 8 30 37 31 30 1-3 3-10 4-16 1-5 3-16 4-22l2-13 10 18c5 9 15 17 20 17h10l-16-16-16-17 13-9 13-9-26 6-25 6-14-16-13-16 14 3c8 2 17 8 21 13l8 10v-27l15 6 15 5v-22l7 7c4 3 7 15 8 26l2 20h-22l10 8c6 4 12 17 12 29l2 21-16 6-16 6 12-14 12-14-13-4-12-4-23 24c-13 14-23 29-23 35v10l20-18 20-18v9c0 13-33 32-48 26zm2676-9 12-5-6-9-5-9h10c6 0 11 7 11 15v15l-17-1-18-1 13-5zm-2439-30-14-18 18 14c9 7 17 15 17 17 0 8-8 3-21-13zm55-5-19-23 23 19c21 18 27 26 19 26-2 0-12-10-23-22zm2311 2-6-10 15 6c18 7 21 14 7 14-6 0-13-4-16-10zm-2425-4c0-2 7-9 15-16l15-13-6 17c-5 14-24 23-24 12zm-55-16-6-10h10c6 0 11 5 11 10 0 6-2 10-4 10-3 0-8-4-11-10zm2293-2 11-11-11-21-10-21 11 11c6 6 13 20 16 32l4 22h-33l12-12zm-2182-6-5-9h28l-5 9c-3 4-7 8-9 8s-6-4-9-8zm2400-4 5-7 14 6c21 7 19 12-4 10l-20-1 5-8zm84-12 10-10 10 10 10 10h-40l10-10zm-2592-3 12-5-6-9-5-9h33l-12 15c-7 8-18 15-24 14l-11-1 13-5zm2555-34 20-28 10 6 10 6-16 12c-10 7-17 17-17 22s-6 10-14 10h-14l21-28zm55 24c-10-2-18-9-18-14 0-14 16-11 30 6 7 8 11 14 9 14-2-1-12-3-21-6zm-298-23c-6-11-8-20-6-20 3 0 10 9 16 20s8 20 6 20c-3 0-10-9-16-20zm-2264 2-5-9h28l-5 9c-3 4-7 8-9 8s-6-4-9-8zm2374-2c0-5 5-10 11-10h10l-6 10c-3 6-8 10-11 10-2 0-4-4-4-10zm-2442-7c7-3 16-2 19 1 4 3-2 6-13 5l-19-1 13-5zm162 3c0-2 8-10 18-17l17-14-14 18c-13 16-21 21-21 13zm2399-8c0-2-2-11-4-20l-3-18h18v20c0 16-7 28-11 18zm-2714-18-6-10h32l-6 10c-3 6-8 10-10 10s-7-4-10-10zm240-1c-4-6-5-12-2-15 2-3 7 2 10 11 7 17 1 20-8 4zm2322 4c-4-3-2-13 3-23s7-19 5-22c-2-2 5-5 16-5l21-2-16 18c-9 10-13 20-10 23s1 9-4 12-12 3-15-1zm-2363-38v-25l16-1 15-1-12-4c-7-3-20-1-30 4l-18 10-25-13-25-14 15-4c8-3 25-7 37-10l23-5 6 10 6 9 14-5 14-5v40l18-10 19-10 11 11 10 10 11-21c13-24 28-28 28-6v14l-9-5-8-5v31h-12c-6 0-20 8-31 18l-20 17 12-22c15-29 14-34-4-27l-15 6 6 10 6 10-21-12-22-11 3 17 3 17-10 4-11 3v-25zm102 17-5-8 20-1 19-2-5 10c-7 11-22 12-29 1zm2009-2c3-5 8-10 11-10 2 0 4 5 4 10 0 6-5 10-11 10h-10l6-10zm179-7c22-27 32-28 52-8 9 8 12 15 7 15s-14-5-21-12l-12-12-22 20-23 19 19-22zm181 6c-10-15 3-25 16-12l11 11-10 6-11 6-6-11zm89 2c3-5 16-11 28-14l23-6-19 14c-11 8-24 15-29 15h-8l5-9zm-2373-15-12-14 20 5 21 5-6 9c-7 12-10 11-23-5zm1965 6-5-9h28l-5 9c-3 4-7 8-9 8s-6-4-9-8zm-1911-13c-4-6-5-12-2-15 2-3 7 2 10 11 7 17 1 20-8 4zm1845 5c0-2 9-8 20-14l20-11v9c0 6-9 12-20 15s-20 3-20 1zm430-4c0-5-7-10-15-10s-15-5-15-10v-11l20 11 20 11v-22l10 6 9 6-6 14c-6 17-23 20-23 5zm-257-7c9-2 17-8 18-11 0-4 2-20 3-35l2-28-11-7c-5-4-14-7-19-7s-10-7-11-15l-3-16 19-1c10-1 21 2 24 8l6 9-18-7-18-7 14 17 13 17 12-7 11-6-7 8-8 8 11 13 10 12-11 7-11 7 13 16 13 16-11-7-12-7-6 15-5 15-18-1-18-1 18-5zm167-3 15-11-30 2c-16 0-41 1-55 0l-25-1 12-8c7-5 31-7 52-6l39 2-4-25-5-25 10 6 9 6 6-15 5-15-7 1c-4 1-13 1-19 0l-13-1v-15c0-17 16-20 25-5l6 9 40-3 40-3-4 10c-1 5-13 14-26 18l-22 9 6-10 6-10h-10c-10 0-13 7-10 28 1 4 5 6 10 5 5-2 9 2 9 7 0 14-13 13-28-2l-12-12-1 12c-1 7-2 22-3 34l-1 21-15 4-15 5 15-12zm137-12-19-20-16 4-17 5-1-26c-1-14 1-20 3-13 3 6 9 12 14 12h8l-6-17-6-16 11 7c7 4 12 15 12 24v18l27 2c34 3 40 9 22 26l-14 13-18-19zm-2417 1v-10l10 6c6 3 10 8 10 11 0 2-4 4-10 4-5 0-10-5-10-11zm173-16v-13l16 12c9 7 18 13 20 15 2 1-5 1-16 0l-20-1v-13zm-118-3c3-5 8-10 11-10 2 0 4 5 4 10 0 6-5 10-11 10h-10l6-10zm172-1c7-7 15-10 18-7s-2 9-12 12l-18 7 12-12zm-21-12c3-10 9-15 12-12s0 11-7 18l-12 12 7-18zm1804 9c0-2 7-7 16-10l15-6-6 10c-6 10-25 14-25 6zm70-6c-8-5-12-11-9-14 2-3 11-1 19 4s12 11 9 14c-2 3-11 1-19-4zm103-8-11-18 10-18 10-17-18 3-17 3-4-12-5-13h16c8 0 17 4 20 9l6 9 34-8 35-8-2 19-1 19h-27l6-9 5-10-21 2-21 1-9 18-9 17 10 6 10 6v-25l11 11 11 11-6 11c-10 16-20 14-33-7zm50 3v-15h20c11 0 18 1 16 3-2 1-11 8-20 15l-16 12v-15zm-2372-11 1-19 5 13c3 7 2 16-1 19-3 4-6-2-5-13zm2239 1-12-15h32v15c0 8-2 15-4 15s-9-7-16-15zm-2060-15-14-19-9 6-10 6 7-11 7-11 14 5c13 5 29 33 22 40-2 2-9-5-17-16zm1330 16c0-2 7-7 16-10l15-6-6 10c-6 10-25 14-25 6zm50-3c0-5 7-16 14-26l14-18 4 8c3 4-3 16-14 26-10 9-18 14-18 10zm585-12c11-13 19-25 18-27-2-2-3-9-3-15v-10l10 6 10 6 16-9 16-9-31-6-31-6v-11c0-5 5-10 10-10 6 0 10 4 10 9s10 11 22 13l21 3 3 25c1 14 0 20-2 13l-5-12-25 26c-13 14-24 22-24 18s-8-1-17 6l-18 14 20-24zm-1842 2c9-2 23-2 30 0l12 5h-60l18-5zm1127-3-15-10h12c6 0 15 5 18 10 8 12 4 12-15 0zm355 0c3-5 8-10 11-10 2 0 4 5 4 10 0 6-5 10-11 10h-10l6-10zm185 0c0-5 5-10 11-10h10l-6 10c-3 6-8 10-11 10-2 0-4-4-4-10zm227-1c7-7 15-10 18-7s-2 9-12 12l-18 7 12-12zm-1822-9-6-10h10c6 0 11 5 11 10 0 6-2 10-4 10-3 0-8-4-11-10zm1517-24c7-8 15-12 17-11 5 6-10 25-20 25h-10l13-14zm38 4-15-10h12c6 0 15 5 18 10 8 12 4 12-15 0zm34-5-19-14 24 6 24 6-8-13-8-13 11 7 11 7-6 14c-6 18-5 18-29 0zm86 0c32-18 44-19 29-2-7 7-22 14-33 14l-21 2 25-14zm-1893-7-12-8h27c15 0 29 4 32 8l5 8h-20c-11 0-25-4-32-8zm1528 2c3-5 8-10 11-10 2 0 4 5 4 10 0 6-5 10-11 10h-10l6-10zm-1355-4c0-3 9-10 20-16s20-8 20-6c0 3-9 10-20 16s-20 8-20 6zm1690-7v-10l10 6c6 3 10 8 10 11 0 2-4 4-10 4-5 0-10-5-10-11zm-1706-11 5-18-27-1-27-1 18-5 17-5-5-8-6-9-17 6-17 6 7-8c4-4 19-9 33-10l25-3-6 10-7 10 13 8 12 8-12 18-12 19 6-17zm127-2-12-14 13-8 13-7-7 8-8 8 11 14c6 7 9 13 6 13-2 0-10-6-16-14zm1864 4c-16-4-26-8-21-9 6 0-3-14-19-31l-28-30 29 9c16 4 34 6 40 4l12-4 6 17 6 16-13-5-14-5v28l17-5 17-5v15c0 8-1 14-1 14-1-1-14-5-31-9zm-2090-10c3-5 8-10 11-10 2 0 4 5 4 10 0 6-5 10-11 10h-10l6-10zm30-1c-4-6-5-12-2-15 2-3 7 2 10 11 7 17 1 20-8 4zm260-10c1-10 4-21 8-24s5-2 2 1c-2 4 0 14 5 24l9 17h-25l1-18zm1208 6v-14l9 5 8 5-5 10c-9 13-12 11-12-6zm126 2 11-11 10 10 10 10-22 1-21 2 12-12zm391-2-12-15h51l-5 15c-4 8-10 15-14 15s-13-7-20-15zm-2090-6v-10l-20 6-20 6v-9c0-5 8-12 18-14l18-5 12 13c15 16 15 24 2 24-5 0-10-5-10-11zm400 8c0-2 6-10 14-16l14-12 8 13 7 13-8-7-8-8-14 11c-7 6-13 9-13 6zm147-8c7-7 15-10 18-7s-2 9-12 12l-18 7 12-12zm1213 0v-11l14 5 15 6 28-21 28-22-24 27-24 27h-37v-11zm440-14-12-14 7-11c3-5 13-10 21-10h14v25l23-29 24-29 7 11 6 11-10 6-10 6 5 10 6 9h-42l-5 15c-8 19-18 19-34 0zm30-9c0-2-7-7-16-10l-15-6 6 10c6 10 25 14 25 6zm-512-5 5-14-12 7-11 7 2-12 3-13-15-1c-8 0-18 4-22 10l-8 10v-31c1-3-9-13-20-22l-22-18 23-1 24-2-15 9-15 10h33l6 16 6 15 12-8c7-4 19-8 26-9l13-2-12 14-11 14 8 1c5 1 14 0 19-1l10-2-7 8-8 7 11 13 11 13-20-2-20-1 6-15zm130 12c6-2 18-2 25 0l12 5h-50l13-5zm118-10c9-10 22-18 28-19s16-3 21-4c6-1 19-1 30 0l20 2-12 4-12 5 6 17 5 17-10-14-10-14-11 7-11 7v-23l-25 16c-32 21-41 20-19-1zm-2134-10c6-8 16-12 22-10 6 3 19-2 29-11l17-15v11c0 6-6 13-12 15l-13 5 32 1c17 1 34 4 36 9l5 7-64 1h-63l11-13zm457 12c-1-5-2-14-4-20-1-5-3-17-4-25l-1-15-8 11-7 12-12-13-12-13 15-6 14-5 12 19c7 11 16 20 21 20h8l-7-12-8-13 20 15c29 22 30 24 11 17l-18-7-9 23c-5 12-10 18-11 12zm1027-3-5-9h28l-5 9c-3 4-7 8-9 8s-6-4-9-8zm250 0-5-8 20-1c23-2 25 3 4 10l-14 6-5-7zm509-21v-26l32-2 33-2v31l-24-6c-12-3-26-3-29 1l-7 6 10 12 10 12h-26l1-26zm-1865 7c0-11 12-10 30 2l15 9-23-2c-12 0-22-5-22-9zm1596-3c10-8 23-15 28-15 6 0 1 7-10 15-10 8-23 15-28 15-6 0-1-7 10-15zm-773-10v-14l9 5c4 3 8 9 8 15 0 5-4 9-8 9-5 0-9-7-9-15zm384 4c7-7 15-10 18-7s-2 9-12 12l-18 7 12-12zm733 1c0-5 5-10 11-10h10l-6 10c-3 6-8 10-11 10-2 0-4-4-4-10zm-2012-7c6-2 12-12 12-20v-15l-19 5-19 5-13-9-14-9 41 4c23 2 47 0 53-4l12-7-15-15c-8-9-12-18-9-22 4-3 1-6-5-6s-14 5-17 10l-6 10 15 6 16 6-5 9-6 8-38-14-39-13-7 6c-4 4-3-3 4-15 15-30 14-32-10-26l-21 6 14 9 13 10-18-6c-10-3-23-6-29-6h-10l11-13c6-8 9-17 6-21-3-3 0-2 7 3l11 10 29-15c16-8 27-18 24-22-2-4 5-19 16-32l20-25-6 18-5 17h21l-5 14-6 15 12 5 12 4-12 1c-7 1-13 6-13 12v10l10-6 10-6v10c0 6 6 11 13 11h13v18c1 9 4 25 9 35l7 17h-31l-11 20c-6 11-16 20-23 19l-12-1 13-5zm1-87 11-13-15-13-16-13-11 11-12 12h26l-6 15-5 15h8c5 0 14-6 20-14zm-5-61 5-15h-28l5 15c4 8 7 15 9 15s5-7 9-15zm1026 143c0-4 4-8 9-8 6 0 12 4 15 8l5 9h-14c-8 0-15-4-15-9zm604 4 7-12h-18l-18-1 18-10 17-10-6-11-7-11 12 7 12 8-5-26c-3-14-7-30-11-36l-6-10h35l-12-12c-7-7-12-16-12-22v-10l12 12c7 7 21 12 31 12h19l-6 16-6 15 9-5 8-5 12 27 13 26-11 4-11 4 6 10 7 11-12-7-12-8 11-13 11-13-23 5-23 4 19-15 20-16h-13c-7 0-19 6-27 14l-14 15 17 10 18 10-13 1h-13l6 9 6 10-22-4-21-4 6 14 5 14-11 7-11 7 7-11zm-496-19c7-3 16-2 19 1 4 3-2 6-13 5l-19-1 13-5zm28-8-5-15h9c6 0 10 7 10 15s-2 15-4 15-6-7-10-15zm-846-4v-13l-17 7-18 6 13-12 12-13 12 12 12 12-7 7-7 6v-12zm610 5c0-2 9-6 20-9l20-5-6 9c-5 9-34 13-34 5zm410-5v-13l-16 6-15 6 6-11 7-10 14 5 15 6 5-15c9-22 20-18 21 7l2 23-8-14-9-13-11 18-10 19-1-14zm100-1-15-10h12c6 0 15 5 18 10 8 12 4 12-15 0zm-1245-10-6-10 16-6 17-7-13-8-13-8-16 12-15 12 13-17 13-16 29 8 28 8 7-6c3-4 3 1-1 11l-6 17h-49l6 10c3 6 4 10 1 10s-8-5-11-10zm152-1c7-7 15-10 18-7s-2 9-12 12l-18 7 12-12zm70 4 12-4-6-17c-6-18-5-17 14 8l12 16-22 1-22 1 12-5zm658-3-6-10h10c6 0 11 5 11 10 0 6-2 10-4 10-3 0-8-4-11-10zm180 0-6-10h10c6 0 11 5 11 10 0 6-2 10-4 10-3 0-8-4-11-10zm-1097-7c7-3 16-2 19 1 4 3-2 6-13 5l-19-1 13-5zm238-6c3-10 9-15 12-12s0 11-7 18l-12 12 7-18zm445-3 1-19 5 13c3 7 2 16-1 19-3 4-6-2-5-13zm105 3c3-10 9-15 12-12s0 11-7 18l-12 12 7-18zm450-2-5-15h9c6 0 10 7 10 15s-2 15-4 15-6-7-10-15zm428 0c8-8 18-15 22-15 3 0 1 7-6 15s-17 15-22 15h-9l15-15zm-1547-9-6-14 20 5c23 6 24 9 5 16l-14 6-5-13zm1155 5-14-8 14-6 15-5v14c0 8-1 14-1 14-1 0-7-4-14-9zm-974-8c7-3 16-2 19 1 4 3-2 6-13 5l-19-1 13-5zm792-3-15-10h12c6 0 15 5 18 10 8 12 4 12-15 0zm220-5c15-18 36-20 46-2l7 12-7-7-8-7-26 10-25 10 13-16zm153 0v-14l9 5 8 5-5 10c-9 13-12 11-12-6zm-1507-11c-9-23-8-24 12-23l17 1-12 4-12 5 6 15c3 8 3 14 0 14s-8-7-11-16zm1074 9c8-3 22-11 30-17l15-11-14 18-13 17-17-1-16-1 15-5zm197-10-5-8h56l-5 8c-2 4-13 7-23 7s-21-3-23-7zm-601-12-6-9-23 5-22 4 17-10 16-11 16 6c9 3 16 10 16 15 0 12-7 12-14 0zm384-3c0-4 7-8 15-8s15 4 15 8c0 5-7 9-15 9s-15-4-15-9zm-367-13-12-13 14-12 15-12-7-12-6-11 8 7 8 8 14-11 13-11v33l-10-6-10-6v25c0 30-11 38-27 21zm283-3-5-8 20-1c23-2 25 3 4 10l-14 6-5-7zm-363-12 4-15h45l13-25 14-25 1 17c0 9-7 24-16 33l-17 16-15-6-15-6-9 13-10 13 5-15zm-807-9-6-9 15-5 14-6-6 15c-6 16-10 17-17 5zm1204-16 12-15 10 6 10 7-13 8c-8 5-18 9-23 9h-8l12-15zm-593-8-5-14h25v14c0 7-4 13-8 13s-9-6-12-13zm229-24-7-18 12 12c7 7 10 15 7 18s-9-2-12-12zm49-14-5-7 15 2c21 3 28 13 10 13-9 0-18-4-20-8zm8-16c-18-2-33-8-33-12v-8l35 1 35 1v13c0 6-1 11-2 10-2 0-18-3-35-5zm-298-13-6-10h32l-6 10c-3 6-8 10-10 10s-7-4-10-10zm294-19-17-6 14-12 13-13 6 10 6 10 10-5 9-6v9c0 14-22 20-41 13z"/></g><g fill="#c2c1bf" transform="matrix(.1 0 0 -.1 0 300)"><path d="M990 2481c0-4 18-16 39-26l40-18 45-45 45-45 110-182 111-182v-49c0-56 44-307 67-374 8-25 24-75 36-112s24-68 27-68 22 91 44 203l38 202 14 16 14 16v166l113 185 112 185 42 42 43 43 40 19c22 10 40 21 40 25v7h-420l-5-8c-2-5 7-19 20-31l25-23v-53l-51-85c-27-46-57-93-65-104l-15-20-10 15c-5 8-34 55-64 104l-55 89v52l24 27c14 14 22 29 19 32-4 3-100 6-215 6l-208-1v-8zm62-707 4-179 21-41 22-42 38-30c21-16 112-77 202-136l163-107 192 128 191 128 22 34c13 18 27 50 33 70l10 36v315h-145l-42-19-41-19-12-22c-6-12-18-52-25-88l-13-67-1 43-1 42h-9c-5 0-18-15-29-32l-20-33-48-223-48-222-6 7c-4 5-17 44-29 88l-23 80-24 35-23 35-35 149-35 150-16 9c-9 5-31 22-49 38-19 16-41 29-50 29h-16l5-47 5-48-13 42c-6 23-16 47-22 52-5 5-39 13-73 17l-64 7 4-179zm-188-666 28-21 44-69 44-68v-79l-15-14-15-15 60-4c33-1 60-2 60 0 0 1-7 14-16 28l-17 24 6 39 5 38 46 69 45 68 23 13 23 12-64 1h-63l12-15 12-15-28-45c-16-25-31-45-34-45s-18 21-33 46l-28 46 12 14 11 14h-73l-74-1 29-21zm396 5c0-25-88-234-107-255l-16-18h105l-12 15-13 16 11 24 12 25h110l6-25c3-14 4-32 0-40l-5-15h111l-20 33c-11 17-39 83-63 144l-44 113h-75v-17zm69-150 1-13h-80l10 25c6 14 15 37 21 53l11 27 18-40c10-22 19-46 19-52zm189 155 12-12V864l-12-12-12-12h127l-16 18-17 19v73h27l39-52 39-53 55-3 54-3-26 21c-15 11-41 38-58 60l-32 40 31 29 31 29v22c0 32-17 58-50 75l-29 15h-175l12-12zm160-46c17-22 15-39-8-62l-20-20h-50v48c0 27 2 51 5 54 10 10 60-4 73-20zm212 36-35-23-18-35-18-35 4-47 4-47 26-35 27-34 36-12 36-12 48 4 47 5 33 23 32 23 14 33c8 18 14 49 14 69v36l-14 27c-8 15-26 38-41 52l-26 24-67 4-67 4-35-24zm123-20c12-6 27-18 34-27l12-16 1-61v-61l-21-27-20-26h-67l-23 19-23 18-4 66-4 66 30 31 30 30h17c9 0 26-5 38-12zM981 759l-33-7-21-20-20-21v-60l13-16c8-9 40-30 72-46l58-29v-50l-25-6-25-6-31 12c-16 7-34 21-40 31-5 11-14 19-19 19h-10v-68l31-12 30-13h90l27 20 27 20 6 24 6 24-10 28-9 28-60 30-59 30-6 15-5 14 12 15 12 15h46l31-26 31-26v61l-11 7c-6 4-25 10-43 13l-31 7-34-7zm181-27c12-15 48-80 78-145l55-117 18 2 18 3 51 115 50 115 26 28 26 27h-104l11-17 10-18-37-80-37-80-38 79-38 79 10 18 10 19h-133l24-28zm347 10c13-9 44-47 67-84l44-68v-96l-12-12-12-12h125l-15 16-16 15v90l41 62c23 34 53 72 68 84l26 23h-113l5-20 5-20-26-40c-14-22-28-40-30-40s-16 21-31 46l-27 45 12 15 12 14-73-1h-74l24-17zm345-4 16-22V514l-16-22-15-22h122l-15 22-16 22v76h28l21-34c12-18 33-45 47-60l27-26h92l-27 23c-15 12-41 40-57 62l-29 39 29 27 29 27v27c0 14-4 35-10 45l-10 18-31 11-32 11h-168l15-22zm144-24 23-16-3-26-3-27-28-13-28-14-15 6-14 5v101h23c12 0 33-7 45-16z"/></g><g fill="#7e7d7b" transform="matrix(.1 0 0 -.1 0 300)"><path d="m1038 2454 52-26 37-42c21-24 89-128 151-231l112-188v-66l1-66 29-140c16-77 42-178 59-225l29-85 6 15c3 8 21 98 41 200 20 101 40 189 45 195l8 10 4 90 4 90 118 190c131 211 149 234 221 276l50 29h-424l25-27 26-28-5-37-5-38-57-90c-31-49-60-90-65-90-4 0-35 44-69 97l-61 97v63l21 27 20 26H986l52-26zm721-529-46-24-12-43c-6-24-16-63-20-88l-9-45-1 50-1 50-25-25-25-25-50-230c-28-126-52-234-54-240-2-5-18 37-36 95l-32 105-18 20-19 20-35 149-35 149-48 43-48 43-15-2c-8-2-14-7-14-13 1-5 4-34 7-64l6-55-18 62c-11 34-22 67-26 72l-6 11h-131l4-167 5-168 12-30c7-16 27-45 44-64l32-34 179-118 179-118 191 129 191 129 22 33 22 33 11 50 11 50-3 140-3 140-70 2-70 3-46-25zm-887-818c14-12 45-52 67-88l41-66v-89l-12-12-12-12h105l-11 19c-5 11-10 38-10 61v41l41 62c23 34 53 72 68 84l26 23h-106l6-19 6-20-27-40c-15-23-30-41-34-41-5 0-20 20-34 44l-26 44 6 16 6 16H845l27-23zm359-89c-24-62-52-128-62-145l-18-33h91l-11 14-12 14 7 26 6 26h118l10-26 10-26-11-14-11-14h114l-12 15c-7 9-36 73-65 143l-52 127-29 3-29 3-44-113zm87-15 20-53h-89l7 22c12 39 35 90 39 87 2-2 12-28 23-56zm208 110c5-10 10-66 12-125l3-107-11-21-11-20h105l-12 12-12 12v96h28l21-33c11-19 32-46 45-60l25-27h86l-21 18c-11 9-37 38-58 64l-37 46 21 7 21 7 16 32 15 33-13 29-14 29-35 12-35 12h-74l-73 1 8-17zm142-29 22-15v-48l-16-15-15-16h-59v110h23c12 0 33-7 45-16zm232 28-35-18-22-44c-28-55-29-82-2-136l20-43 45-22 45-21 46 5 45 5 26 19c14 11 34 31 45 45l19 26 5 43 4 44-18 35-18 35-34 22-34 23h-102l-35-18zm122-23 20-11 14-33c17-41 17-67 3-118l-10-39-34-14-34-14-25 10c-29 11-51 43-59 86l-6 30 9 40 9 39 22 18 21 17h25c13 0 33-5 45-11zM935 735l-25-24v-61l19-19c11-11 39-28 63-39 23-10 49-26 56-35l13-16-11-20-11-21h-71l-29 29-29 29v-68l26-10c14-6 43-10 65-10h40l28 15c32 16 41 33 41 75v28l-30 25c-16 14-40 29-52 32-32 10-58 35-58 55v18l16 6c9 3 25 6 37 6h21l28-27 28-27v64l-26 10c-14 6-45 10-70 10h-45l-24-25zm227 8c9-10 43-75 76-145l61-128h27l55 123 54 122 24 23 24 22h-94l6-18 5-19-31-74c-17-41-34-78-38-82l-8-8-37 84-37 83 7 17 6 17h-115l15-17zm356-2c12-11 42-52 67-92l45-73v-62l-16-22-15-22h115l-12 12-12 12v100l41 63c23 35 53 73 67 83l25 20h-105l6-16 6-17-31-48-31-49-30 46-30 47 5 19 5 18h-61l-62-1 23-18zm341 1 11-21V509l-10-20-11-19h114l-16 18-17 19v83h29l31-45c17-24 40-51 52-60l22-15h72l-53 57c-50 54-65 83-43 83 6 0 19 9 30 20l20 20v49l-24 27-23 28-98 4-97 4 11-20zm143-29 18-16v-21c0-12-4-27-8-34l-9-13-36-6-37-6v113h53l19-17z"/></g><g fill="#424140" transform="matrix(.1 0 0 -.1 0 300)"><path d="M1040 2455c25-13 62-41 82-62l37-38 115-190 116-190v-120l29-152 30-151 15-30c8-16 20-50 27-76l12-47 7 8c4 4 22 87 39 183l32 175 14 28 15 29v153l116 190c123 202 153 241 223 286l45 29h-406l26-31c30-36 31-38 11-85-16-40-117-204-125-204-11 0-128 198-134 227l-7 30 26 32 27 31h-209l-208-1 45-24zm727-529-47-20-12-35c-6-20-17-63-24-96l-12-60-1 55-1 55-24-25-24-25-52-240c-29-132-54-242-56-243-1-2-17 43-34 100l-32 103-23 35-23 35-31 140-32 140-22 15c-12 8-36 28-55 44-18 16-35 26-38 23-4-3-1-41 4-84 6-43 9-79 8-81-2-1-14 37-27 85l-24 88-63 3-62 3v-332l15-37c9-20 26-48 38-61 24-26 373-261 388-261s361 235 386 261c12 14 29 41 38 61l15 37v329l-63 4-64 3-46-19zm138-816-41-20-17-29-17-29v-97l20-32c10-18 31-40 45-49l26-17 52-1h53l33 19c19 11 43 32 54 46l19 27 1 49 1 50-20 33-19 33-35 18-35 19h-80l-40-20zm135-35 24-25 3-58 4-57-20-32-20-32-26-7-25-6-29 12-30 12-15 33c-26 55-17 125 21 167l16 18h74l23-25zm-1154 23c11-13 37-49 57-80l37-58v-96l-12-12-12-12h108l-12 12-12 12v101l36 55c20 30 46 65 57 78l20 22h-73v-16c0-17-51-104-60-104-9 1-60 91-60 106v14h-93l19-22zm339-100c-26-68-55-131-63-140l-15-18h82l-5 15c-4 8-3 26 0 40l6 25h119l11-20 11-21-6-19-6-20h102l-20 28c-10 15-38 78-62 139l-44 113h-61l-49-122zm114-40 1-8h-90v9c0 5 10 31 21 58l22 48 23-50c12-27 23-53 23-57zm199 37 4-126-12-14-12-15h106l-12 12-12 12v96h29l31-45c17-24 40-51 52-60l22-15 36 1 35 1-13 5c-7 2-33 30-58 61l-45 55 30 24 31 24v32c0 38-7 50-37 66l-22 11h-156l3-125zm134 88 18-16v-56l-19-11c-11-5-31-10-45-10h-26v110h53l19-17zM955 749c-30-19-44-41-45-71v-26l28-24c15-12 46-32 70-42l42-19 6-20 7-21-24-18-23-19-25 6c-14 4-38 18-53 33l-28 26v-62l36-12 36-12 40 5 40 5 24 23 24 22v24c0 14-5 33-10 44l-11 19-60 31-60 30 3 27 3 27 37 3 38 3 25-27 25-27v20c0 10-6 27-13 37l-14 19-49 4-49 4-20-12zm279-139 71-140 10 3c6 2 35 58 65 124 30 67 61 128 69 137l13 16h-62v-17c0-21-62-173-70-173-4 0-23 36-44 79l-39 79 6 16 6 16h-95l70-140zm287 130c9-5 38-43 63-84l46-74v-37c0-20-5-45-10-56l-11-19h101l-16 25-17 25 6 39 5 39 42 63c24 35 50 70 58 77l16 12h-74v-16c0-8-14-36-31-61l-32-46-33 53-33 53 5 9 5 8h-53l-53-1 16-9zm347-116 3-126-12-14-11-14h106l-12 12-12 12v96h35l33-51 33-50 25-9c14-6 37-10 50-10h26l-56 61-55 61 36 34 35 34-6 27-7 28-21 18-20 17h-173l3-126zm133 96 19-11v-68l-19-11c-11-5-31-10-45-10h-26v110h26c14 0 34-5 45-10z"/></g><g fill="#0e0d0d" transform="matrix(.1 0 0 -.1 0 300)"><path d="M1063 2443c73-50 89-71 217-283l110-181v-113l25-130c27-137 29-148 68-261l25-70 10 40c5 22 23 108 38 190l28 150 13 16 13 16v162l115 190 116 189 39 41c21 22 56 49 77 60l38 20-203 1h-204l27-32 27-32-6-30-6-30-62-98c-33-54-64-98-68-98s-35 44-68 98l-62 98-6 30-6 30 27 32 27 32h-404l55-37zm-3-662v-158l12-34c6-19 20-46 30-61l19-28 189-126 189-127 158 103c87 57 175 117 197 134l39 30 23 50 24 51v325h-141l-37-19-38-19-12-27c-7-14-17-58-23-98-7-40-16-76-21-82l-9-10 6 70 6 70-24-28-24-28-53-245-53-245-8 13c-4 7-19 56-34 108l-28 95-21 25-21 26-34 146-34 147-54 46c-30 26-56 45-59 42s0-42 7-86c6-45 9-84 7-87-3-2-15 33-27 78-13 46-28 89-33 96l-10 12h-108v-159zm866-661c-34-11-63-36-82-72l-14-27v-86l20-32 19-32 30-16 30-15h102l30 15 30 16 19 32 20 32v104l-31 35-31 36-36 10c-43 12-66 12-106 0zm83-21 32-11 14-29 15-28V918l-29-29-29-29h-27c-37 0-62 16-80 50l-15 29v83l16 33 16 34 26 10c15 5 27 10 28 10 1 1 15-4 33-10zm-1122-1c12-13 39-52 62-87l41-64v-28c0-15-4-39-10-53l-10-26h94l-12 12-12 12v107l41 62c23 34 49 68 57 75l16 12h-74v-20c0-20-47-100-59-100-9 0-64 91-64 106v14h-90l20-22zm339-103c-27-69-53-128-58-131-4-3-8-9-8-15v-9h68l-5 20c-3 11-2 31 1 45l6 25h119l12-21 11-21-5-24-4-24h88l-17 33c-10 17-36 79-60 137l-42 105-28 3-29 3-49-126zm108-23 7-22h-100l16 38c8 20 20 48 25 62l10 25 18-40c9-22 20-50 24-63zm204 23 3-127-12-14-11-14h106l-12 12-12 12v96h30l36-50c40-56 60-70 99-70h27l-51 57c-28 31-51 63-51 70v13h13c8 0 21 8 30 18l17 19v60l-21 19-21 19-87 3-86 4 3-127zm133 95 19-11v-65l-12-12-12-12h-66v110h26c14 0 34-5 45-10zM963 750c-12-5-30-21-39-35l-17-27 9-26 9-27 65-35 65-35 3-27 3-28-25-11-25-12-26 7-27 7-24 26-24 26v-62l38-10c49-14 66-14 107 3l35 15 11 25 12 25-13 30-12 30-56 28c-30 15-60 36-66 46l-11 18 24 20 25 20 25-6c14-4 34-14 44-22l17-16v41l-31 11c-37 13-66 13-96 1zm210-18c9-10 41-70 71-135l55-117h26l45 102c25 56 55 117 67 135l22 33h-61l5-12 4-13-34-80c-19-44-38-84-42-88l-8-8-36 80c-21 44-37 89-37 101v20h-93l16-18zm363-4c11-13 37-49 58-82l38-58-4-54-3-54h62l-5 54-4 54 55 81 56 81h-59v-16c0-18-51-104-61-104-4 0-21 22-39 50l-32 49 7 11 6 10h-94l19-22zm329-113V480h70l-3 60-4 60h31l30-44c17-25 38-52 47-60l15-16h59l-47 60c-25 33-44 61-42 63s16 11 32 20l27 17v33c0 38-7 50-37 66l-22 11h-156V615zm148 93c21-25 21-37 1-66l-15-22h-69v53c0 30 3 57 6 60 12 11 58-4 77-25z"/></g></g></svg>